<?xml version="1.0" encoding="UTF-8"?>
<svg version="1.1" xmlns="http://www.w3.org/2000/svg" width="250" height="250">
<path d="M0 0 C1.30953392 -0.01354271 1.30953392 -0.01354271 2.64552307 -0.02735901 C4.48329296 -0.04176273 6.32111298 -0.0507234 8.15893555 -0.05444336 C10.9044165 -0.06624722 13.64757557 -0.11545174 16.39257812 -0.16601562 C48.22696427 -0.45644237 77.01739525 13.62180925 100.140625 35.01171875 C116.35449046 51.19878443 127.27509753 71.46759055 133.50390625 93.37109375 C133.98537109 95.04171875 133.98537109 95.04171875 134.4765625 96.74609375 C139.17078944 116.65834943 138.50234224 140.84650414 132.50390625 160.37109375 C132.28959961 161.09248535 132.07529297 161.81387695 131.85449219 162.55712891 C121.87711874 195.40113189 99.15102516 222.15373228 68.9140625 238.34765625 C54.95944609 245.41049398 39.0940929 250.47151656 23.42578125 250.609375 C22.54094055 250.61744675 21.65609985 250.62551849 20.7444458 250.63383484 C18.86838721 250.64764544 16.99230382 250.65838108 15.11621094 250.66625977 C13.22941533 250.67768611 11.3426496 250.6979862 9.45605469 250.7277832 C-24.15188971 251.25753153 -53.33944388 238.37421311 -77.61328125 215.25 C-94.29103113 198.87903147 -105.96803388 177.04900765 -111.49609375 154.37109375 C-111.68155762 153.61030518 -111.86702148 152.8495166 -112.05810547 152.06567383 C-113.90647299 143.37537856 -113.89359011 134.64943436 -113.87109375 125.80859375 C-113.87054993 125.00740112 -113.8700061 124.2062085 -113.8694458 123.3807373 C-113.83255691 111.58160393 -113.27590101 100.63986491 -109.49609375 89.37109375 C-109.28710449 88.71415527 -109.07811523 88.0572168 -108.86279297 87.38037109 C-98.11812144 53.93909005 -75.17982356 27.71837422 -44.1796875 11.65234375 C-30.23857973 4.9469275 -15.56643213 0.10338081 0 0 Z " fill="#EAEAEA" transform="translate(113.49609375,-0.37109375)"/>
<path d="M0 0 C1.30953392 -0.01354271 1.30953392 -0.01354271 2.64552307 -0.02735901 C4.48329296 -0.04176273 6.32111298 -0.0507234 8.15893555 -0.05444336 C10.9044165 -0.06624722 13.64757557 -0.11545174 16.39257812 -0.16601562 C48.22696427 -0.45644237 77.01739525 13.62180925 100.140625 35.01171875 C116.35449046 51.19878443 127.27509753 71.46759055 133.50390625 93.37109375 C133.98537109 95.04171875 133.98537109 95.04171875 134.4765625 96.74609375 C139.17078944 116.65834943 138.50234224 140.84650414 132.50390625 160.37109375 C132.28959961 161.09248535 132.07529297 161.81387695 131.85449219 162.55712891 C121.82108577 195.58558396 99.20728119 221.49753356 69.1796875 238.22265625 C68.29667969 238.60164062 67.41367188 238.980625 66.50390625 239.37109375 C65.84390625 239.04109375 65.18390625 238.71109375 64.50390625 238.37109375 C65.12265625 237.66984375 65.74140625 236.96859375 66.37890625 236.24609375 C70.78157631 230.28954014 70.76821855 224.61173753 70.62890625 217.49609375 C70.61988281 216.61695313 70.61085938 215.7378125 70.6015625 214.83203125 C70.57815202 212.67826665 70.54228635 210.52464361 70.50390625 208.37109375 C71.18960693 208.48912354 71.87530762 208.60715332 72.58178711 208.72875977 C78.18182946 209.63585261 81.81584778 209.37361388 86.8125 206.671875 C89.65854271 204.48311698 91.26557197 202.51103369 92.0078125 198.9609375 C92.23194004 188.81543065 88.10819725 181.82682062 81.25390625 174.55859375 C77.32681202 170.82551269 73.14358353 168.11009942 68.375 165.5625 C67.44880859 164.97275391 67.44880859 164.97275391 66.50390625 164.37109375 C66.50390625 163.71109375 66.50390625 163.05109375 66.50390625 162.37109375 C67.03757812 162.16355469 67.57125 161.95601562 68.12109375 161.7421875 C75.69170158 158.61178045 82.84572301 154.37606887 88.50390625 148.37109375 C91.47584475 149.49561102 93.83831312 150.59403166 96.50390625 152.37109375 C94.63824137 148.74315377 94.63824137 148.74315377 91.50390625 146.37109375 C92.20944693 142.7022822 93.78126131 139.66658841 95.50390625 136.37109375 C96.55578125 136.80421875 96.55578125 136.80421875 97.62890625 137.24609375 C100.55843128 138.39242963 103.51312278 139.39735029 106.50390625 140.37109375 C103.7487041 137.41180256 101.03763337 135.33427549 97.50390625 133.37109375 C98.16390625 130.07109375 98.82390625 126.77109375 99.50390625 123.37109375 C103.84855161 123.9793441 108.17942492 124.63276767 112.50390625 125.37109375 C112.17390625 124.38109375 111.84390625 123.39109375 111.50390625 122.37109375 C109.20719533 121.38016358 109.20719533 121.38016358 106.50390625 120.74609375 C101.57726532 119.44445282 101.57726532 119.44445282 100.50390625 118.37109375 C100.10091586 116.15023428 99.75668808 113.91859161 99.44140625 111.68359375 C99.17650391 109.85248047 99.17650391 109.85248047 98.90625 107.984375 C98.20459267 101.68308348 98.20178239 98.72403209 101.60546875 93.3046875 C103.2184779 89.83321128 103.12585881 86.10280913 102.50390625 82.37109375 C101.84390625 81.38109375 101.18390625 80.39109375 100.50390625 79.37109375 C100.24853516 77.09033203 100.24853516 77.09033203 100.23046875 74.44140625 C100.19953125 73.00087891 100.19953125 73.00087891 100.16796875 71.53125 C100.14202872 69.51570949 100.12373874 67.5000553 100.11328125 65.484375 C99.99345579 59.56188568 99.99345579 59.56188568 97.58984375 54.23828125 C93.39816857 50.48618249 89.40868883 51.11476557 83.9765625 51.1328125 C79.88249225 51.41373296 76.44464141 52.36322628 72.625 53.8125 C70.13676055 54.46778221 68.89303272 54.27629073 66.50390625 53.37109375 C64.80615687 52.07757042 63.13651339 50.74592082 61.50390625 49.37109375 C57.93716705 47.58772415 54.26767186 48.40650146 50.50390625 49.37109375 C48.60707793 50.72761676 48.60707793 50.72761676 46.85546875 52.37890625 C42.07303014 56.13061792 37.92483913 56.2303156 32.00390625 56.18359375 C30.20178286 56.20815641 28.39969456 56.23545988 26.59765625 56.265625 C25.30891602 56.27335937 25.30891602 56.27335937 23.99414062 56.28125 C21.60779259 56.36734569 19.35794661 56.66201827 17.00390625 57.046875 C15.84890625 57.15386719 14.69390625 57.26085938 13.50390625 57.37109375 C11.00390625 54.74609375 11.00390625 54.74609375 9.8203125 53.07421875 C6.61769596 48.9307742 2.67074728 46.7241664 -2.46875 45.88671875 C-7.36440529 45.66832521 -10.59080623 45.87730056 -14.93359375 48.24609375 C-22.25701823 55.85035752 -24.73701925 66.53789412 -24.6640625 76.72265625 C-24.56630257 79.38851897 -24.56630257 79.38851897 -23.89453125 82 C-23.31359392 85.45714665 -24.78243223 87.42359594 -26.49609375 90.37109375 C-26.82609375 90.37109375 -27.15609375 90.37109375 -27.49609375 90.37109375 C-27.69243408 89.44772217 -27.88877441 88.52435059 -28.09106445 87.57299805 C-28.82580462 84.14370679 -29.57049644 80.71689512 -30.32202148 77.29125977 C-30.64504318 75.80905536 -30.96408984 74.32597878 -31.27905273 72.84204102 C-31.73285785 70.70737034 -32.20093422 68.57625951 -32.671875 66.4453125 C-32.94942627 65.16229248 -33.22697754 63.87927246 -33.51293945 62.55737305 C-34.4873719 59.39936018 -35.14323258 58.49060002 -37.49609375 56.37109375 C-37.98297465 53.70890872 -38.36114115 51.11381257 -38.68359375 48.43359375 C-39.41247325 42.92163159 -39.41247325 42.92163159 -42.46484375 38.4296875 C-44.88016216 37.19217234 -44.88016216 37.19217234 -48.49609375 36.37109375 C-48.49609375 35.38109375 -48.49609375 34.39109375 -48.49609375 33.37109375 C-45.19609375 31.72109375 -41.89609375 30.07109375 -38.49609375 28.37109375 C-38.49609375 27.05109375 -38.49609375 25.73109375 -38.49609375 24.37109375 C-42.45609375 24.37109375 -46.41609375 24.37109375 -50.49609375 24.37109375 C-51.15609375 21.73109375 -51.81609375 19.09109375 -52.49609375 16.37109375 C-44.63550818 11.80314284 -36.83216366 7.85943454 -28.18359375 4.99609375 C-27.4683252 4.75810059 -26.75305664 4.52010742 -26.01611328 4.27490234 C-17.42790066 1.54845444 -9.01072928 0.05984265 0 0 Z " fill="#010101" transform="translate(113.49609375,-0.37109375)"/>
<path d="M0 0 C1.93434545 2.90151818 2.38693893 4.23512282 2.9609375 7.55078125 C3.61681055 11.09134055 4.36672692 14.56213676 5.2890625 18.04296875 C7.74329563 27.42441466 9.38209223 35.64905208 8.9765625 45.37109375 C9.00783063 50.21244258 9.93833516 54.68790769 10.92529297 59.40966797 C11.95421498 64.41958279 12.35758568 68.904404 12 74 C11.67 74.33 11.34 74.66 11 75 C10.49957854 77.91538029 10.49957854 77.91538029 11 81 C11.804375 81.474375 12.60875 81.94875 13.4375 82.4375 C14.7059375 83.2109375 14.7059375 83.2109375 16 84 C16.8125 87.6875 16.8125 87.6875 17 91 C4.87876399 91.54545562 -1.63936335 89.55143797 -11 82 C-11.73734375 81.484375 -12.4746875 80.96875 -13.234375 80.4375 C-13.81703125 79.963125 -14.3996875 79.48875 -15 79 C-15 78.34 -15 77.68 -15 77 C-19.15187886 78.37904324 -21.70755969 80.24875293 -24.8125 83.3125 C-25.60269531 84.07175781 -26.39289062 84.83101563 -27.20703125 85.61328125 C-29.1615167 87.85790649 -29.1615167 87.85790649 -29.51171875 90.54296875 C-28.2765337 96.47374277 -20.92690891 100.52216081 -16.125 103.75 C-7.67135854 108.71191999 1.37152203 110.72292439 11 112 C10.67 112.66 10.34 113.32 10 114 C9.52981615 119.4672541 10.12061117 123.83168071 12 129 C12.3984375 131.4453125 12.3984375 131.4453125 12 134 C9.6640625 135.9140625 9.6640625 135.9140625 6.625 137.625 C2.18997204 140.11539862 2.18997204 140.11539862 -1 144 C-0.70390197 147.84927445 0.51907739 150.08761258 3 153 C7.1999786 152.387826 10.38769924 150.9185504 14.125 148.9375 C19.66823529 146 19.66823529 146 23 146 C21.79882812 166.41992188 21.79882812 166.41992188 21.66711426 168.6579895 C21.57881268 170.1598311 21.49067915 171.66168259 21.40270996 173.1635437 C21.17735518 177.00722669 20.94894492 180.85068675 20.71484375 184.69384766 C20.64601234 185.8343734 20.64601234 185.8343734 20.57579041 186.99794006 C20.48910961 188.43293191 20.401426 189.86786371 20.31251526 191.30271912 C19.79670333 199.64873469 19.79670333 199.64873469 20 208 C21.62021265 209.62021265 23.39367934 209.17064712 25.625 209.1875 C30.07147802 209.15578475 33.74611841 208.33455109 38 207 C40.9375 206.875 40.9375 206.875 43 207 C43.226875 207.886875 43.45375 208.77375 43.6875 209.6875 C45.73188371 214.84713509 48.53166158 217.25248226 53.4375 219.75 C60.06474317 222.07534848 66.25155028 222.10044822 73.1875 222 C74.97259541 221.97448041 76.7577622 221.95345121 78.54296875 221.9375 C79.32696045 221.92589844 80.11095215 221.91429687 80.91870117 221.90234375 C83 222 83 222 86 223 C87.77166975 223.14835948 89.54767612 223.24770018 91.32421875 223.31640625 C92.35224609 223.35830078 93.38027344 223.40019531 94.43945312 223.44335938 C95.51130859 223.48267578 96.58316406 223.52199219 97.6875 223.5625 C98.77095703 223.60568359 99.85441406 223.64886719 100.97070312 223.69335938 C103.64700791 223.79946838 106.32340526 223.90152361 109 224 C99.36178111 230.42547926 86.13241539 229.49840302 75.00878906 229.44604492 C72.2681094 229.43755609 69.52953668 229.46635799 66.7890625 229.49804688 C33.921822 229.62944329 4.67081158 215.26612274 -18.57714844 192.44580078 C-34.46669905 176.29996709 -45.64114647 154.98377402 -51 133 C-51.18546387 132.23921143 -51.37092773 131.47842285 -51.56201172 130.69458008 C-53.41037924 122.00428481 -53.39749636 113.27834061 -53.375 104.4375 C-53.37445618 103.63630737 -53.37391235 102.83511475 -53.37335205 102.00964355 C-53.33646316 90.21051018 -52.77980726 79.26877116 -49 68 C-48.79101074 67.34306152 -48.58202148 66.68612305 -48.36669922 66.00927734 C-39.95703697 39.83538474 -23.75984435 17.66042658 -2 1 C-1.34 0.67 -0.68 0.34 0 0 Z " fill="#010101" transform="translate(53,21)"/>
<path d="M0 0 C4.93024774 3.02122925 8.3950634 5.79012681 11 11 C19.91 11 28.82 11 38 11 C37.01 14.96 36.02 18.92 35 23 C34.90911765 30.17453423 34.90911765 30.17453423 38.375 36.0625 C42.74411778 39.28732503 46.74468367 39.29824691 52 39 C52.928125 38.773125 53.85625 38.54625 54.8125 38.3125 C57 38 57 38 58.8125 39.3125 C60 41 60 41 60 43 C62.97 43.33 65.94 43.66 69 44 C69.556875 45.5778125 69.556875 45.5778125 70.125 47.1875 C71.87375268 51.13422623 73.98326394 54.18964008 78 56 C83.80903239 56.81889443 88.63891882 56.41394071 94 54 C95.97094808 58.92737019 96.1799928 62.78020872 96 68 C94.02 68.33 92.04 68.66 90 69 C89.505 70.485 89.505 70.485 89 72 C90.98 72 92.96 72 95 72 C94.125 79.875 94.125 79.875 93 81 C91.00041636 81.04080783 88.99954746 81.04254356 87 81 C87 81.99 87 82.98 87 84 C88.65 84 90.3 84 92 84 C90.87548273 86.9719385 89.77706209 89.33440687 88 92 C86.02 91.67 84.04 91.34 82 91 C82 91.99 82 92.98 82 94 C82.99 94 83.98 94 85 94 C82.27007958 100.59730768 75.29609274 103.61351116 69 106.25 C64.40290156 107.96236588 59.83368551 109.17853287 55 110 C54.35160156 110.11214844 53.70320313 110.22429687 53.03515625 110.33984375 C50.68800609 110.66871508 48.36611778 110.85190728 46 111 C44.77410156 111.07734375 43.54820312 111.1546875 42.28515625 111.234375 C23.33621277 112.04118986 4.1514526 105.88005993 -10.28125 93.26953125 C-13.86926568 89.77946427 -16.97425191 86.62123784 -19 82 C-18.01 81.01 -17.02 80.02 -16 79 C-16.763125 79.103125 -17.52625 79.20625 -18.3125 79.3125 C-19.199375 79.209375 -20.08625 79.10625 -21 79 C-23.24243223 76.13896577 -24 74.65923696 -24 71 C-22.35 71 -20.7 71 -19 71 C-19 70.01 -19 69.02 -19 68 C-20.98 67.67 -22.96 67.34 -25 67 C-25 64.03 -25 61.06 -25 58 C-23.02 58.33 -21.04 58.66 -19 59 C-19.495 57.515 -19.495 57.515 -20 56 C-22.01508358 55.26676204 -22.01508358 55.26676204 -24 55 C-23.54795511 48.6283196 -21.93966344 44.09989036 -18.9375 38.5 C-18.56044922 37.77296875 -18.18339844 37.0459375 -17.79492188 36.296875 C-16.87427046 34.52549507 -15.93867864 32.76189339 -15 31 C-15.66 31 -16.32 31 -17 31 C-19.48559109 26.02881782 -18.70082326 18.58238136 -17.28125 13.3515625 C-15.25668835 8.56771926 -12.62038956 4.71322006 -9 1 C-5.47155796 -0.17614735 -3.71065272 -0.54972633 0 0 Z " fill="#030303" transform="translate(112,50)"/>
<path d="M0 0 C1.82076376 0.42431712 3.63114669 0.89301099 5.4375 1.375 C16.76290473 3.9559195 28.43305078 3.76385994 40 4 C39.76603516 4.89525391 39.76603516 4.89525391 39.52734375 5.80859375 C37.78770238 13.03777009 39.91394572 17.3584182 43.4921875 23.546875 C44.62394245 25.38817579 45.80112131 27.20168197 47 29 C47.29871063 32.03404655 47.37787078 35.04280551 47.4609375 38.08984375 C48.11891165 41.64195056 49.18976113 42.79779463 52 45 C53.485 45.495 53.485 45.495 55 46 C55 46.99 55 47.98 55 49 C39.82 49 24.64 49 9 49 C9 47.02 9 45.04 9 43 C5.52859548 43.76429774 5.52859548 43.76429774 4 48 C-3.59 48 -11.18 48 -19 48 C-19 42.20889945 -18.78409588 37.69909006 -17.375 32.25 C-17.19678711 31.55753174 -17.01857422 30.86506348 -16.83496094 30.15161133 C-13.83882528 19.16451318 -8.12414218 8.12414218 0 0 Z " fill="#080808" transform="translate(124,162)"/>
<path d="M0 0 C0.96955124 0.00848969 1.93910248 0.01697937 2.93803406 0.02572632 C6.0262394 0.05923881 9.11180653 0.13451522 12.19921875 0.2109375 C14.29618617 0.24103983 16.39319464 0.26841517 18.49023438 0.29296875 C23.623408 0.35902343 28.75461655 0.46253163 33.88671875 0.5859375 C35.28537778 3.38325555 35.13209142 5.77878309 35.19921875 8.8984375 C35.25529297 10.59419922 35.25529297 10.59419922 35.3125 12.32421875 C34.79398445 16.2963333 33.73482631 17.81098339 30.88671875 20.5859375 C19.9957025 26.78852632 5.76177312 27.19553434 -6.23828125 24.4609375 C-9.71143185 23.35096154 -11.09625391 22.60217287 -13.80078125 20.0234375 C-15.51940644 15.52227629 -16.27499487 11.31937932 -15.11328125 6.5859375 C-11.02983577 -0.1016715 -7.51729813 -0.24854113 0 0 Z " fill="#030303" transform="translate(144.11328125,214.4140625)"/>
<path d="M0 0 C3.3125 1.25 3.3125 1.25 6 3 C6.78375 3.495 7.5675 3.99 8.375 4.5 C11.66159852 9.55630541 10.46191318 15.71155013 9.31640625 21.38671875 C8.60131231 24.27788804 7.83787669 27.14224199 7 30 C6.01 30 5.02 30 4 30 C4 27.69 4 25.38 4 23 C3.34 23.33 2.68 23.66 2 24 C1.53248212 26.35599235 1.53248212 26.35599235 1.375 29.0625 C1.30023438 29.98160156 1.22546875 30.90070313 1.1484375 31.84765625 C1.09945312 32.55792969 1.05046875 33.26820313 1 34 C0.34 34 -0.32 34 -1 34 C-1.66 33.01 -2.32 32.02 -3 31 C-3.99 31 -4.98 31 -6 31 C-6.33 31.66 -6.66 32.32 -7 33 C-7.66 33 -8.32 33 -9 33 C-9 29.7 -9 26.4 -9 23 C-9.99 23 -10.98 23 -12 23 C-12 24.65 -12 26.3 -12 28 C-13.32 28 -14.64 28 -16 28 C-16.09087891 27.04287109 -16.09087891 27.04287109 -16.18359375 26.06640625 C-16.26738281 25.24011719 -16.35117188 24.41382813 -16.4375 23.5625 C-16.51871094 22.73878906 -16.59992188 21.91507813 -16.68359375 21.06640625 C-16.78930815 19.01337975 -16.78930815 19.01337975 -18 18 C-18.37714054 12.43717709 -18.24104737 8.75353614 -15 4 C-10.28179364 -0.26885337 -6.1028305 -0.90939844 0 0 Z " fill="#F3F3F3" transform="translate(141,169)"/>
<path d="M0 0 C1.65 0 3.3 0 5 0 C4.94199219 1.22976562 4.88398437 2.45953125 4.82421875 3.7265625 C4.77729995 5.35933688 4.73180206 6.99215252 4.6875 8.625 C4.64560547 9.43324219 4.60371094 10.24148437 4.56054688 11.07421875 C4.47027024 15.515829 4.47768756 17.36018871 7.37890625 20.9140625 C8.0601355 21.60991455 8.0601355 21.60991455 8.75512695 22.31982422 C11.37649696 25.85782547 11.59790428 30.49391099 12.25 34.75 C12.56558754 36.64098016 12.88319545 38.5316246 13.203125 40.421875 C13.39890137 41.66855957 13.39890137 41.66855957 13.59863281 42.94042969 C13.91488696 45.05299832 13.91488696 45.05299832 15 47 C15.06950541 48.54023996 15.08452357 50.08334988 15.0625 51.625 C15.05347656 52.44226563 15.04445313 53.25953125 15.03515625 54.1015625 C15.02355469 54.72804687 15.01195313 55.35453125 15 56 C13.10614563 56.50744423 11.20981334 57.00564574 9.3125 57.5 C8.25675781 57.7784375 7.20101562 58.056875 6.11328125 58.34375 C3.27356794 58.94233449 0.88199527 59.05127345 -2 59 C-1.8803119 53.00828307 -1.75599729 47.01668495 -1.62768555 41.02514648 C-1.58479602 38.99359641 -1.54309654 36.96202081 -1.50268555 34.93041992 C-1.26968401 23.26020698 -0.93564476 11.6375839 0 0 Z " fill="#050505" transform="translate(81,166)"/>
<path d="M0 0 C4.83480118 2.74704612 8.10435528 5.58841089 10 11 C10.57589723 14.13783259 10.69604222 16.87658366 10 20 C7.81840855 22.75569447 6.12822506 24.43588747 3 26 C-2.69062784 26.37937519 -5.98375652 26.00974609 -11 23 C-11 23.66 -11 24.32 -11 25 C-15.56 24.52 -15.56 24.52 -17.375 22.375 C-18.29597089 18.87531062 -17.91903223 16.49232246 -17 13 C-14.75 10.3125 -14.75 10.3125 -12 8 C-11.21625 7.319375 -10.4325 6.63875 -9.625 5.9375 C-6.53648787 3.6578839 -3.36407763 1.84694458 0 0 Z " fill="#060606" transform="translate(192,179)"/>
<path d="M0 0 C3.0625 1 3.0625 1 5.41796875 2.89453125 C14.25585543 9.93089893 24.20436872 10.83683136 35.0625 11 C35.0625 14.96 35.0625 18.92 35.0625 23 C18.41063202 23.76074524 7.25973762 20.20323745 -5.9375 10 C-6.5975 9.34 -7.2575 8.68 -7.9375 8 C-7.75406833 5.24852495 -6.88161376 3.92341515 -5.25 1.6875 C-2.9375 0 -2.9375 0 0 0 Z " fill="#0A0A0A" transform="translate(36.9375,105)"/>
<path d="M0 0 C7.59 0 15.18 0 23 0 C22.34 1.32 21.68 2.64 21 4 C20.6827548 7.33737146 20.6827548 7.33737146 20.75 10.9375 C20.74484375 12.14277344 20.7396875 13.34804687 20.734375 14.58984375 C20.9876336 17.84123725 21.60356123 20.07966971 23 23 C20.45767658 23.08152344 17.91800798 23.14073716 15.375 23.1875 C14.66214844 23.21263672 13.94929688 23.23777344 13.21484375 23.26367188 C7.60396172 23.34088585 3.61740599 22.16612909 -0.8125 18.5 C-3.57726092 15.00767041 -3.28299446 11.24491684 -3 7 C-2.01 4.69 -1.02 2.38 0 0 Z " fill="#060606" transform="translate(104,215)"/>
<path d="M0 0 C2.69105198 2.17574416 4.45532928 3.91065856 6 7 C6.04022391 9.3329866 6.04320247 11.66706666 6 14 C1.125 13.125 1.125 13.125 0 12 C-3.78299385 11.64311379 -6.15412807 11.47946343 -9.4375 13.5 C-11.61367013 16.98187222 -11.87103826 19.993224 -11 24 C-9.70644173 25.37195574 -8.37701298 26.71182656 -7 28 C-7.25 30.75 -7.25 30.75 -8 33 C-12.77247406 33.46788961 -15.95087582 33.68514232 -20.0625 31 C-22.52353057 27.18937202 -22.71012394 24.34658283 -22 20 C-20.28621996 12.39918928 -17.07335383 6.66357332 -11.1875 1.5625 C-6.88954008 -0.5443431 -4.75936066 -0.67990867 0 0 Z " fill="#090909" transform="translate(174,52)"/>
<path d="M0 0 C8 27.88932806 8 27.88932806 8 35 C2.75117306 38.17692157 -2.01488629 38.65697965 -8 39 C-7.835 38.175 -7.67 37.35 -7.5 36.5 C-6.49892912 29.49250381 -7.12779686 23.24837787 -8.5 16.375 C-9.46201033 11.50428102 -10.18917869 6.99747029 -10 2 C-8.7090864 1.66376204 -7.41723903 1.33110751 -6.125 1 C-5.40570313 0.814375 -4.68640625 0.62875 -3.9453125 0.4375 C-2 0 -2 0 0 0 Z " fill="#060606" transform="translate(76,62)"/>
<path d="M0 0 C4.97209562 1.76429199 9.43438061 4.3939166 14 7 C12.2546501 10.71001077 10.10427938 14.15195112 7.9375 17.625 C5.33767727 21.73762591 5.33767727 21.73762591 3 26 C-2.26053037 26.31563182 -5.44573816 25.66590937 -10 23 C-7.99721894 14.98887578 -5.27903503 6.44873375 0 0 Z " fill="#080808" transform="translate(105,153)"/>
<path d="M0 0 C5.31654267 1.57177271 9.77236305 5.62192446 13.41796875 9.71484375 C13.41796875 10.37484375 13.41796875 11.03484375 13.41796875 11.71484375 C11.69649097 13.09144143 9.9141922 14.39257138 8.10546875 15.65234375 C3.49175371 18.86814054 3.49175371 18.86814054 -0.58203125 22.71484375 C-5.00576582 20.90943071 -6.4401256 18.35632399 -8.59765625 14.234375 C-10.08099118 10.43774394 -10.54357151 6.70523583 -9.58203125 2.71484375 C-6.82347405 -1.09620912 -4.32844733 -0.62843689 0 0 Z " fill="#080808" transform="translate(175.58203125,165.28515625)"/>
<path d="M0 0 C1.76953125 1.22265625 1.76953125 1.22265625 3 3 C3.328125 5.3046875 3.328125 5.3046875 3.25 7.875 C3.23453125 8.71804687 3.2190625 9.56109375 3.203125 10.4296875 C2.99847616 13.01928241 2.56306772 15.46619526 2 18 C-0.25062454 17.96690258 -2.50073465 17.89742124 -4.75 17.8125 C-6.00296875 17.77769531 -7.2559375 17.74289063 -8.546875 17.70703125 C-12.80488618 16.83519864 -13.62770766 15.5210375 -16 12 C-16.99 11.34 -17.98 10.68 -19 10 C-19.6875 6.875 -19.6875 6.875 -20 4 C-13.54438206 0.92327996 -7.23217894 -1.4729759 0 0 Z " fill="#0A0A0A" transform="translate(205,56)"/>
<path d="M0 0 C5.49471751 -0.32321868 9.46054055 -0.5464527 14 3 C15 4 15 4 15.4375 7.5625 C15.37878467 13.02302561 12.4971938 16.07611509 9 20 C8.236875 20.99 7.47375 21.98 6.6875 23 C3.34174753 25.48986231 1.18850653 25.72697209 -2.91015625 25.48828125 C-5 25 -5 25 -7.5 22.8125 C-8.94713046 20.09913039 -9.47646081 17.99524824 -10 15 C-8.86111328 15.05220703 -8.86111328 15.05220703 -7.69921875 15.10546875 C-6.70535156 15.13253906 -5.71148437 15.15960938 -4.6875 15.1875 C-3.70136719 15.22230469 -2.71523437 15.25710937 -1.69921875 15.29296875 C0.99636395 15.21758705 0.99636395 15.21758705 2.828125 13.734375 C4.8435034 10.75161497 4.65227245 7.41241479 4 4 C2.16658535 1.49479421 2.16658535 1.49479421 0 0 Z " fill="#0A0A0A" transform="translate(196,78)"/>
<path d="M0 0 C3.35319738 0.55886623 5.3143691 1.42822759 8 3.5 C9.1845131 7.05353929 9.26641894 9.77013478 9 13.5 C7.45161082 15.5645189 6.37147976 16.37756472 3.9140625 17.1875 C-0.40900764 17.77768022 -2.29330149 17.96151739 -6.0625 15.5 C-8.49058836 11.74037932 -8.78527701 9.89755124 -8 5.5 C-5.54597925 2.1076772 -4.16402963 0.69400494 0 0 Z " fill="#0B0B0B" transform="translate(180,70.5)"/>
<path d="M0 0 C0.66 0.66 1.32 1.32 2 2 C2.99 2 3.98 2 5 2 C5 2.66 5 3.32 5 4 C7.65228812 5.07525194 10.28368454 6.09456151 13 7 C13 7.66 13 8.32 13 9 C13.66 9 14.32 9 15 9 C15 8.34 15 7.68 15 7 C16.26839526 6.49384702 17.53983102 5.99530901 18.8125 5.5 C19.87404297 5.08234375 19.87404297 5.08234375 20.95703125 4.65625 C23 4 23 4 26 4 C25.34 5.98 24.68 7.96 24 10 C21.36 10 18.72 10 16 10 C15.4465236 12.07553648 15 13.84365964 15 16 C14.68197057 17.66965451 14.35015049 19.33678518 14 21 C13.34 21 12.68 21 12 21 C11.67 21.66 11.34 22.32 11 23 C10.34 23 9.68 23 9 23 C9 19.7 9 16.4 9 13 C8.01 13 7.02 13 6 13 C6 14.65 6 16.3 6 18 C4.68 18 3.36 18 2 18 C1.90912109 17.04287109 1.90912109 17.04287109 1.81640625 16.06640625 C1.73261719 15.24011719 1.64882812 14.41382813 1.5625 13.5625 C1.48128906 12.73878906 1.40007812 11.91507813 1.31640625 11.06640625 C1.21069185 9.01337975 1.21069185 9.01337975 0 8 C-0.14115161 5.32941149 -0.04247107 2.67567762 0 0 Z " fill="#D3D3D3" transform="translate(123,179)"/>
<path d="M0 0 C-0.33 0.99 -0.66 1.98 -1 3 C-4.3 3.33 -7.6 3.66 -11 4 C-10.01 5.32 -9.02 6.64 -8 8 C-7.37623762 13.92574257 -7.37623762 13.92574257 -9.125 16.9375 C-11.87801549 18.49754211 -13.9003407 18.39570119 -17 18 C-19.31332486 14.53001271 -19.33957563 13.07490752 -19 9 C-18.34 8.01 -17.68 7.02 -17 6 C-18.65 6 -20.3 6 -22 6 C-22 5.01 -22 4.02 -22 3 C-18.89857059 2.29973482 -15.7935359 1.61701544 -12.6875 0.9375 C-11.80642578 0.73833984 -10.92535156 0.53917969 -10.01757812 0.33398438 C-9.17001953 0.15029297 -8.32246094 -0.03339844 -7.44921875 -0.22265625 C-6.27879028 -0.48187866 -6.27879028 -0.48187866 -5.0847168 -0.74633789 C-3 -1 -3 -1 0 0 Z " fill="#F0F0F0" transform="translate(196,115)"/>
<path d="M0 0 C1.875 1.1875 1.875 1.1875 3 3 C3.4375 6 3.4375 6 3 9 C1.4375 10.9375 1.4375 10.9375 -1 12 C-4.45113452 11.87890756 -6.96862779 11.63213135 -9.9375 9.8125 C-11.57253963 7.02331475 -11.52630807 5.15784841 -11 2 C-7.35285401 -1.32533899 -4.62274323 -1.40692185 0 0 Z " fill="#DCDCDC" transform="translate(151,128)"/>
<path d="M0 0 C4.62 1.65 9.24 3.3 14 5 C13.3808361 7.584859 12.75492318 10.16776172 12.125 12.75 C11.95097656 13.47960937 11.77695313 14.20921875 11.59765625 14.9609375 C11.42363281 15.66992188 11.24960938 16.37890625 11.0703125 17.109375 C10.91320801 17.75874023 10.75610352 18.40810547 10.59423828 19.07714844 C9.94101309 21.19087138 9.03624898 23.04896712 8 25 C7.75765625 23.73542969 7.5153125 22.47085938 7.265625 21.16796875 C6.92793099 19.50763987 6.58934253 17.84749274 6.25 16.1875 C6.09273438 15.35412109 5.93546875 14.52074219 5.7734375 13.66210938 C4.89508143 8.82581236 4.89508143 8.82581236 1.859375 5.17578125 C1.24578125 4.78777344 0.6321875 4.39976562 0 4 C0 2.68 0 1.36 0 0 Z " fill="#080808" transform="translate(91,179)"/>
<path d="M0 0 C1.8125 1.125 1.8125 1.125 3 3 C3.54624158 6.66762206 3.47898298 8.3258758 1.3125 11.375 C-1.42227885 13.29673649 -2.72640914 13.51688277 -6 13 C-8 11 -8 11 -8.3125 7.0625 C-8.23719217 4.46908648 -8.15247863 3.25680612 -6.8125 1 C-4.33474158 -0.36703913 -2.78844081 -0.41826612 0 0 Z " fill="#E9E9E9" transform="translate(118,111)"/>
<path d="M0 0 C0.33 0 0.66 0 1 0 C1.02698189 1.62490954 1.04638757 3.24994633 1.0625 4.875 C1.07410156 5.77992188 1.08570313 6.68484375 1.09765625 7.6171875 C1 10 1 10 0 12 C-0.99 12 -1.98 12 -3 12 C-3 9.69 -3 7.38 -3 5 C-3.99 5.495 -3.99 5.495 -5 6 C-5.46751788 8.35599235 -5.46751788 8.35599235 -5.625 11.0625 C-5.69976562 11.98160156 -5.77453125 12.90070313 -5.8515625 13.84765625 C-5.90054688 14.55792969 -5.94953125 15.26820313 -6 16 C-6.66 16 -7.32 16 -8 16 C-10.18975773 12.71536341 -10.99806563 9.79303725 -12 6 C-11.34 5.67 -10.68 5.34 -10 5 C-9.67 4.01 -9.34 3.02 -9 2 C-6.94921875 1.77213542 -4.8984375 1.54427083 -2.84765625 1.31640625 C-0.98859771 1.18113386 -0.98859771 1.18113386 0 0 Z " fill="#E4E4E4" transform="translate(148,187)"/>
<path d="M0 0 C0.33 0 0.66 0 1 0 C1.51953125 2.66015625 1.51953125 2.66015625 1 6 C-1.47518001 8.32033462 -4.34108192 9.83048408 -7.3125 11.4375 C-8.49102539 12.12489258 -8.49102539 12.12489258 -9.69335938 12.82617188 C-13.9878028 15.24933442 -13.9878028 15.24933442 -16 16 C-16.99 15.67 -17.98 15.34 -19 15 C-17.63623554 11.74449262 -16.35647003 10.26492428 -13.33984375 8.45703125 C-12.62892578 8.02326172 -11.91800781 7.58949219 -11.18554688 7.14257812 C-10.44369141 6.70365234 -9.70183594 6.26472656 -8.9375 5.8125 C-7.46691967 4.92405086 -5.99684057 4.03477137 -4.52734375 3.14453125 C-3.87499756 2.75628174 -3.22265137 2.36803223 -2.55053711 1.96801758 C-1.01548325 1.09059735 -1.01548325 1.09059735 0 0 Z " fill="#1B1B1B" transform="translate(76,153)"/>
<path d="M0 0 C2.84574968 1.27568089 5.18089981 2.41496289 7 5 C6.46299641 9.57731635 4.72756562 13.83325109 3.125 18.125 C2.86847656 18.84042969 2.61195312 19.55585938 2.34765625 20.29296875 C-0.0407768 26.71413298 -0.0407768 26.71413298 -3 29 C-2.91284983 27.06166004 -2.80467036 25.1242571 -2.6875 23.1875 C-2.62949219 22.10855469 -2.57148437 21.02960938 -2.51171875 19.91796875 C-1.94957709 16.71247395 -1.3323008 16.08484183 1 14 C1.36724067 9.22587127 0.76939595 4.71255017 0 0 Z " fill="#121212" transform="translate(94,144)"/>
<path d="M0 0 C-0.33 0.99 -0.66 1.98 -1 3 C-4.3 3.33 -7.6 3.66 -11 4 C-11 4.66 -11 5.32 -11 6 C-14.63 6 -18.26 6 -22 6 C-22 5.01 -22 4.02 -22 3 C-18.89857059 2.29973482 -15.7935359 1.61701544 -12.6875 0.9375 C-11.80642578 0.73833984 -10.92535156 0.53917969 -10.01757812 0.33398438 C-9.17001953 0.15029297 -8.32246094 -0.03339844 -7.44921875 -0.22265625 C-6.27879028 -0.48187866 -6.27879028 -0.48187866 -5.0847168 -0.74633789 C-3 -1 -3 -1 0 0 Z " fill="#BDBDBD" transform="translate(196,115)"/>
<path d="M0 0 C5.13837442 0.86576549 7.60826843 4.30610972 11 8 C11.52722656 8.55816406 12.05445312 9.11632812 12.59765625 9.69140625 C14 11.25 14 11.25 16 14 C15.67 14.99 15.34 15.98 15 17 C14.34 17 13.68 17 13 17 C11.48259024 15.30096977 10.034872 13.53927277 8.625 11.75 C6.40770687 8.94686688 4.2694248 6.26298803 1.7109375 3.765625 C0 2 0 2 0 0 Z " fill="#D6D6D6" transform="translate(114,102)"/>
<path d="M0 0 C0 2.97 0 5.94 0 9 C-2.97 8.505 -2.97 8.505 -6 8 C-7.125 3.25 -7.125 3.25 -6 1 C-3.911361 0.32624548 -2.19636905 0 0 0 Z " fill="#101010" transform="translate(74,135)"/>
<path d="M0 0 C0.680625 0.45375 1.36125 0.9075 2.0625 1.375 C5.30435186 3.16836486 8.4203441 4.08753869 12 5 C9.82927882 7.00992701 8.70600541 8.01908123 5.6875 7.9375 C2.14459378 6.70160248 -0.79297334 4.94936915 -4 3 C-3.34 2.67 -2.68 2.34 -2 2 C-1.34 2.33 -0.68 2.66 0 3 C0 2.01 0 1.02 0 0 Z " fill="#D7D7D7" transform="translate(46,106)"/>
<path d="M0 0 C2.125 0.375 2.125 0.375 4 1 C4.625 3.375 4.625 3.375 5 6 C4.34 6.66 3.68 7.32 3 8 C0.375 7.625 0.375 7.625 -2 7 C-2.125 4.625 -2.125 4.625 -2 2 C-1.34 1.34 -0.68 0.68 0 0 Z " fill="#191919" transform="translate(192,83)"/>
<path d="M0 0 C1.4301492 3.80456358 0.53792878 6.29670823 -0.75 10.0625 C-1.09546875 11.10535156 -1.4409375 12.14820313 -1.796875 13.22265625 C-2.92680335 15.83102981 -3.84196384 17.20783778 -6 19 C-5.93970033 17.08247047 -5.85083293 15.16582574 -5.75 13.25 C-5.70359375 12.18265625 -5.6571875 11.1153125 -5.609375 10.015625 C-4.88468432 6.42933524 -3.67796654 5.38733451 -1 3 C-0.67 2.01 -0.34 1.02 0 0 Z " fill="#292929" transform="translate(97,154)"/>
<path d="M0 0 C1.67542976 0.28604898 3.34385343 0.61781233 5 1 C5.33 2.65 5.66 4.3 6 6 C3.125 6.625 3.125 6.625 0 7 C-0.66 6.34 -1.32 5.68 -2 5 C-1.46428571 1.46428571 -1.46428571 1.46428571 0 0 Z " fill="#121212" transform="translate(145,130)"/>
<path d="M0 0 C-0.33 0.99 -0.66 1.98 -1 3 C-3.64 3.33 -6.28 3.66 -9 4 C-9 3.67 -9 3.34 -9 3 C-10.65 2.67 -12.3 2.34 -14 2 C-14 1.67 -14 1.34 -14 1 C-12.23103898 0.63659714 -10.45973374 0.28459117 -8.6875 -0.0625 C-7.70136719 -0.25972656 -6.71523437 -0.45695312 -5.69921875 -0.66015625 C-3 -1 -3 -1 0 0 Z " fill="#BABABA" transform="translate(196,115)"/>
<path d="M0 0 C1.67542976 0.28604898 3.34385343 0.61781233 5 1 C4.49396008 3.16874252 4.00016187 4.99967627 3 7 C1.68 6.67 0.36 6.34 -1 6 C-1.042721 4.33388095 -1.04063832 2.66617115 -1 1 C-0.67 0.67 -0.34 0.34 0 0 Z " fill="#111111" transform="translate(167,68)"/>
<path d="M0 0 C-0.33 0.99 -0.66 1.98 -1 3 C-3.66666667 3 -6.33333333 3 -9 3 C-9.33 4.65 -9.66 6.3 -10 8 C-10.33 8 -10.66 8 -11 8 C-11.3125 5.1875 -11.3125 5.1875 -11 2 C-7.31130117 -1.36322541 -4.68898981 -1.19950902 0 0 Z " fill="#BCBCBC" transform="translate(151,128)"/>
<path d="M0 0 C0.33 1.32 0.66 2.64 1 4 C1.99 3.67 2.98 3.34 4 3 C3.34 5.31 2.68 7.62 2 10 C0.33333333 10 -1.33333333 10 -3 10 C-2.01 6.7 -1.02 3.4 0 0 Z " fill="#CECECE" transform="translate(97,158)"/>
<path d="M0 0 C3.77545388 1.09068668 6.47043472 1.9083091 9 5 C6.75 5.6875 6.75 5.6875 4 6 C1.6875 4.75 1.6875 4.75 0 3 C0 2.01 0 1.02 0 0 Z " fill="#292929" transform="translate(126,182)"/>
<path d="M0 0 C-0.375 1.9375 -0.375 1.9375 -1 4 C-3.70879335 5.35439668 -6.00933268 5.06501451 -9 5 C-9 4.34 -9 3.68 -9 3 C-3.375 0 -3.375 0 0 0 Z " fill="#222222" transform="translate(149,183)"/>
<path d="M0 0 C0.66 0 1.32 0 2 0 C2 0.66 2 1.32 2 2 C4.64 1.67 7.28 1.34 10 1 C9.67 1.66 9.34 2.32 9 3 C6.36 3 3.72 3 1 3 C1 3.99 1 4.98 1 6 C0.01 6 -0.98 6 -2 6 C-2 4.68 -2 3.36 -2 2 C-1.34 2 -0.68 2 0 2 C0 1.34 0 0.68 0 0 Z " fill="#A6A6A6" transform="translate(138,186)"/>
<path d="M0 0 C3.57104439 1.87949705 5.54744301 3.17053157 7 7 C6.01 7.33 5.02 7.66 4 8 C0 3.375 0 3.375 0 0 Z " fill="#DCDCDC" transform="translate(123,111)"/>
<path d="M0 0 C1 3 1 3 -0.25 5.625 C-2 8 -2 8 -5 9 C-5 7.33333333 -5 5.66666667 -5 4 C-3.35 3.34 -1.7 2.68 0 2 C0 1.34 0 0.68 0 0 Z " fill="#D6D6D6" transform="translate(189,175)"/>
<path d="M0 0 C2.97 0 5.94 0 9 0 C6.64031256 2.09749995 5.45383006 2.96905704 2.25 3.1875 C1.13625 3.0946875 1.13625 3.0946875 0 3 C0 2.01 0 1.02 0 0 Z " fill="#D9D9D9" transform="translate(174,118)"/>
<path d="M0 0 C0.66 0.33 1.32 0.66 2 1 C-0.64 3.64 -3.28 6.28 -6 9 C-6.66 8.67 -7.32 8.34 -8 8 C-5.33333333 5.33333333 -2.66666667 2.66666667 0 0 Z " fill="#202020" transform="translate(183,184)"/>
<path d="M0 0 C2.31 0 4.62 0 7 0 C7 0.66 7 1.32 7 2 C6.34 2 5.68 2 5 2 C4.67 2.99 4.34 3.98 4 5 C3.67 4.34 3.34 3.68 3 3 C2.01 3 1.02 3 0 3 C0 2.01 0 1.02 0 0 Z " fill="#CBCBCB" transform="translate(194,141)"/>
<path d="M0 0 C1.98 0.495 1.98 0.495 4 1 C4.33 2.32 4.66 3.64 5 5 C2.525 4.01 2.525 4.01 0 3 C0 2.01 0 1.02 0 0 Z " fill="#D6D6D6" transform="translate(205,147)"/>
</svg>
